<svg width="24" height="24" viewBox="0 0 24 24" fill="none" xmlns="http://www.w3.org/2000/svg">
<path fill-rule="evenodd" clip-rule="evenodd" d="M20.5303 11.4697C20.671 11.6103 20.75 11.8011 20.75 12C20.75 12.1989 20.671 12.3897 20.5303 12.5303L12.5303 20.5303C12.2374 20.8232 11.7626 20.8232 11.4697 20.5303C11.1768 20.2374 11.1768 19.7626 11.4697 19.4697L18.1893 12.75H4C3.58579 12.75 3.25 12.4142 3.25 12C3.25 11.5858 3.58579 11.25 4 11.25H18.1893L11.4697 4.53033C11.1768 4.23744 11.1768 3.76256 11.4697 3.46967C11.7626 3.17678 12.2374 3.17678 12.5303 3.46967L20.5303 11.4697Z" fill="#3182B9"/>
</svg>
